<?xml version="1.0" encoding="UTF-8"?>
<!-- Generated by Pixelmator Pro 3.6 -->
<svg width="952" height="390" viewBox="0 0 952 390" xmlns="http://www.w3.org/2000/svg">
  <g id="Group">
    <path id="Path" fill="#6a7281" stroke="none"
      d="M 668.632019 193.111511 C 668.632019 298.888947 582.882507 384.638489 477.105042 384.638489 C 371.327637 384.638489 285.578094 298.888947 285.578094 193.111511 C 285.578094 87.334106 371.327637 1.584534 477.105042 1.584534 C 582.882507 1.584534 668.632019 87.334106 668.632019 193.111511 Z" />
  </g>
  <g id="g1">
    <path id="eN8HYslCIaj5" fill="none" stroke="#8193c3" stroke-width="2.245155"
      stroke-linecap="round" stroke-linejoin="round" stroke-dasharray="34.83 34.83"
      stroke-dashoffset="0" d="M 391.521698 35.757935 L 391.521698 61.821838" />
    <path id="eN8HYslCIaj6" fill="none" stroke="#8193c3" stroke-width="2.245155"
      stroke-linecap="round" stroke-linejoin="round" stroke-dasharray="34.83 34.83"
      stroke-dashoffset="0" d="M 365.510742 61.825806 L 391.574677 61.825806" />
    <path id="eN8HYslCIaj7" fill="none" stroke="#8193c3" stroke-width="2.245155"
      stroke-linecap="round" stroke-linejoin="round" stroke-dasharray="34.83 34.83"
      stroke-dashoffset="0" d="M 417.604034 61.825806 L 391.5401 61.825806" />
    <path id="eN8HYslCIaj8" fill="none" stroke="#8193c3" stroke-width="2.245155"
      stroke-linecap="round" stroke-linejoin="round" stroke-dasharray="34.83 34.83"
      stroke-dashoffset="0" d="M 391.547913 87.8703 L 391.547913 61.806396" />
    <g id="g2">
      <path id="eN8HYslCIaj10" fill="none" stroke="#8193c3" stroke-width="2.245154"
        stroke-linecap="round" stroke-linejoin="round" stroke-dasharray="34.83 34.83"
        stroke-dashoffset="0" d="M 401.862518 72.670532 L 391.51947 61.85144" />
      <path id="eN8HYslCIaj11" fill="none" stroke="#8193c3" stroke-width="2.245154"
        stroke-linecap="round" stroke-linejoin="round" stroke-dasharray="34.83 34.83"
        stroke-dashoffset="0" d="M 381.21347 50.960754 L 391.556519 61.779846" />
      <path id="eN8HYslCIaj12" fill="none" stroke="#8193c3" stroke-width="2.245154"
        stroke-linecap="round" stroke-linejoin="round" stroke-dasharray="34.83 34.83"
        stroke-dashoffset="0" d="M 380.699127 72.185608 L 391.51825 61.84259" />
      <path id="eN8HYslCIaj13" fill="none" stroke="#8193c3" stroke-width="2.245154"
        stroke-linecap="round" stroke-linejoin="round" stroke-dasharray="34.83 34.83"
        stroke-dashoffset="0" d="M 402.364624 51.438538 L 391.545502 61.781555" />
    </g>
  </g>
  <g id="g3">
    <path id="eN8HYslCIaj15" fill="none" stroke="#8193c3" stroke-width="1.963639"
      stroke-linecap="round" stroke-linejoin="round" stroke-dasharray="34.83 34.83"
      stroke-dashoffset="0" d="M 615.829895 96.177979 L 615.807312 73.382141" />
    <path id="eN8HYslCIaj16" fill="none" stroke="#8193c3" stroke-width="1.963639"
      stroke-linecap="round" stroke-linejoin="round" stroke-dasharray="34.83 34.83"
      stroke-dashoffset="0" d="M 638.556763 73.35614 L 615.760925 73.378784" />
    <path id="eN8HYslCIaj17" fill="none" stroke="#8193c3" stroke-width="1.963639"
      stroke-linecap="round" stroke-linejoin="round" stroke-dasharray="34.83 34.83"
      stroke-dashoffset="0" d="M 592.995361 73.401306 L 615.791199 73.378723" />
    <path id="eN8HYslCIaj18" fill="none" stroke="#8193c3" stroke-width="1.963639"
      stroke-linecap="round" stroke-linejoin="round" stroke-dasharray="34.83 34.83"
      stroke-dashoffset="0" d="M 615.76178 50.599915 L 615.784363 73.395691" />
    <g id="g4">
      <path id="eN8HYslCIaj20" fill="none" stroke="#8193c3" stroke-width="1.963638"
        stroke-linecap="round" stroke-linejoin="round" stroke-dasharray="34.83 34.83"
        stroke-dashoffset="0" d="M 606.753662 63.90271 L 615.809204 73.356262" />
      <path id="eN8HYslCIaj21" fill="none" stroke="#8193c3" stroke-width="1.963638"
        stroke-linecap="round" stroke-linejoin="round" stroke-dasharray="34.83 34.83"
        stroke-dashoffset="0" d="M 624.832397 82.872498 L 615.776917 73.418945" />
      <path id="eN8HYslCIaj22" fill="none" stroke="#8193c3" stroke-width="1.963638"
        stroke-linecap="round" stroke-linejoin="round" stroke-dasharray="34.83 34.83"
        stroke-dashoffset="0" d="M 625.263855 64.308472 L 615.810303 73.364014" />
      <path id="eN8HYslCIaj23" fill="none" stroke="#8193c3" stroke-width="1.963638"
        stroke-linecap="round" stroke-linejoin="round" stroke-dasharray="34.83 34.83"
        stroke-dashoffset="0" d="M 606.332947 82.4729 L 615.786499 73.417419" />
    </g>
  </g>
  <g id="g5">
    <path id="eN8HYslCIaj25" fill="none" stroke="#a5b7e8" stroke-width="1.68393"
      stroke-linecap="round" stroke-linejoin="round" stroke-dasharray="34.83 34.83"
      stroke-dashoffset="0" d="M 573.908936 334.058136 L 573.908936 353.606842" />
    <path id="eN8HYslCIaj26" fill="none" stroke="#a5b7e8" stroke-width="1.68393"
      stroke-linecap="round" stroke-linejoin="round" stroke-dasharray="34.83 34.83"
      stroke-dashoffset="0" d="M 554.399963 353.609772 L 573.948669 353.609772" />
    <path id="eN8HYslCIaj27" fill="none" stroke="#a5b7e8" stroke-width="1.68393"
      stroke-linecap="round" stroke-linejoin="round" stroke-dasharray="34.83 34.83"
      stroke-dashoffset="0" d="M 593.471436 353.609772 L 573.922729 353.609772" />
    <path id="eN8HYslCIaj28" fill="none" stroke="#a5b7e8" stroke-width="1.68393"
      stroke-linecap="round" stroke-linejoin="round" stroke-dasharray="34.83 34.83"
      stroke-dashoffset="0" d="M 573.928589 373.143921 L 573.928589 353.595215" />
    <g id="g6">
      <path id="eN8HYslCIaj30" fill="none" stroke="#a5b7e8" stroke-width="1.683929"
        stroke-linecap="round" stroke-linejoin="round" stroke-dasharray="34.83 34.83"
        stroke-dashoffset="0" d="M 581.664856 361.743652 L 573.907288 353.628998" />
      <path id="eN8HYslCIaj31" fill="none" stroke="#a5b7e8" stroke-width="1.683929"
        stroke-linecap="round" stroke-linejoin="round" stroke-dasharray="34.83 34.83"
        stroke-dashoffset="0" d="M 566.17749 345.460663 L 573.935059 353.575317" />
      <path id="eN8HYslCIaj32" fill="none" stroke="#a5b7e8" stroke-width="1.683929"
        stroke-linecap="round" stroke-linejoin="round" stroke-dasharray="34.83 34.83"
        stroke-dashoffset="0" d="M 565.791687 361.379944 L 573.906372 353.622375" />
      <path id="eN8HYslCIaj33" fill="none" stroke="#a5b7e8" stroke-width="1.683929"
        stroke-linecap="round" stroke-linejoin="round" stroke-dasharray="34.83 34.83"
        stroke-dashoffset="0" d="M 582.041443 345.819031 L 573.926819 353.576599" />
    </g>
  </g>
  <g id="eN8HYslCIaj34">
    <path id="eN8HYslCIaj35" fill="#1c2435" stroke="none"
      d="M 535.642395 318.931519 C 535.642395 318.931519 503.408752 359.54837 432.716736 352.558105 C 368.062042 345.253174 324.018585 303.76239 317.794586 264.584442 C 315.623627 250.753235 325.046326 237.873474 334.676056 235.168457 C 344.305786 232.46344 360.003174 239.213013 364.783508 256.042572 C 369.563873 272.87204 370.421753 302.63858 394.53537 321.194763 C 414.721191 337.105835 481.852112 355.130219 534.015198 313.813965 C 535.502808 315.817108 535.086975 316.499054 535.642395 318.931519 Z" />
    <linearGradient id="linearGradient1" x1="443.924189" y1="187.653422" x2="443.924189"
      y2="241.989863" gradientUnits="userSpaceOnUse">
      <stop offset="0.01" stop-color="#0a1924" stop-opacity="1" />
      <stop offset="0.41" stop-color="#131f2d" stop-opacity="1" />
      <stop offset="1" stop-color="#1c2435" stop-opacity="1" />
    </linearGradient>
    <path id="eN8HYslCIaj36" fill="none" stroke="url(#linearGradient1)" stroke-width="19.746738"
      stroke-linecap="round" stroke-linejoin="round"
      d="M 475.310486 196.100586 C 475.310486 196.100586 445.245453 199.372498 431.818909 212.127747 C 427.567169 215.931946 422.420288 227.344543 435.959686 233.553589" />
    <linearGradient id="linearGradient2" x1="515.13312" y1="178.599448" x2="614.283686"
      y2="178.599448" gradientUnits="userSpaceOnUse">
      <stop offset="0.01" stop-color="#0a1924" stop-opacity="1" />
      <stop offset="0.41" stop-color="#131f2d" stop-opacity="1" />
      <stop offset="1" stop-color="#1c2435" stop-opacity="1" />
    </linearGradient>
    <path id="eN8HYslCIaj37" fill="none" stroke="url(#linearGradient2)" stroke-width="19.746738"
      stroke-linecap="round" stroke-linejoin="round"
      d="M 523.580322 192.42218 C 523.580322 192.42218 582.096497 142.265442 605.858398 177.063599" />
    <path id="eN8HYslCIaj38" fill="#151e2c" stroke="none"
      d="M 487.926453 225.654907 C 487.926453 225.654907 450.00177 220.849854 428.313324 247.595703 C 422.597687 254.978851 410.906586 275.02536 429.099579 296.272614 C 424.491974 297.216064 419.367859 291.359772 415.318024 284.91687 C 407.598663 270.513397 396.733124 269.919739 390.142578 275.533905 C 383.407471 280.197052 383.159088 298.015747 400.459412 308.733856 C 417.759735 319.451904 454.949432 333.614746 504.678345 301.976044 C 529.526306 283.523804 536.05365 271.70871 535.329651 253.585571 C 534.430054 241.671753 524.501831 229.143494 487.926453 225.654907 Z" />
    <path id="eN8HYslCIaj39" fill="#1c2435" stroke="none"
      d="M 483.059326 186.666077 C 483.059326 186.666077 478.934448 209.265076 453.099121 229.889526 C 425.475616 251.929047 426.60556 289.623352 448.952271 314.78949 C 459.56073 328.030762 505.362183 353.800262 538.745117 317.43338 C 565.907837 286.782043 567.268188 246.356079 533.040466 178.701538 C 515.290405 182.683838 506.360474 185.338623 483.059326 186.666077 Z" />
    <path id="eN8HYslCIaj40" fill="#555b73" stroke="none"
      d="M 528.198853 183.605347 C 528.198853 183.605347 534.287415 203.352112 526.937256 216.922485 C 518.446167 232.632141 496.099426 233.520752 473.730774 247.957764 C 459.99585 256.075897 456.035461 267.408264 449.760437 282.108643 C 450.238312 300.217804 446.779877 317.97113 434.098969 294.223175 C 416.345612 241.424377 461.016113 223.307251 468.333313 214.135986 C 481.761108 196.704041 482.177979 186.96228 482.177979 186.96228 Z" />
    <clipPath id="clipPath1">
      <path
        d="M 528.175598 183.712219 C 528.175598 183.712219 534.26416 203.458984 526.914001 217.029358 C 518.422913 232.75 496.076172 233.638611 473.696533 248.075623 C 459.961609 256.193756 456.001282 267.515228 449.682343 282.248474 C 445.162506 293.833221 426.249512 287.733673 432.645264 259.100861 C 437.965912 237.050354 460.731689 224.273437 468.037964 215.102173 C 481.465698 197.615356 482.099854 187.003357 482.099854 187.003357 Z" />
    </clipPath>
    <g id="eN8HYslCIaj41" clip-path="url(#clipPath1)">
      <g id="g7">
        <path id="eN8HYslCIaj43" fill="#3b404e" stroke="none"
          d="M 470.569946 189.235718 L 535.558655 184.474548 C 535.400391 190.719421 530.073486 201.522522 492.982483 203.233948 C 466.115967 204.352905 469.802002 193.56897 470.569946 189.235718 Z" />
      </g>
    </g>
    <g id="eN8HYslCIaj46">
      <path id="eN8HYslCIaj47" fill="#1c2435" stroke="none"
        d="M 497.030334 244.200073 C 497.030334 244.200073 470.744568 238.17334 448.66156 257.244812 C 444.130737 261.797516 423.772827 277.556274 439.657837 310.626526 C 437.298828 308.281738 435.117035 306.276062 431.111664 302.45282 C 423.125214 295.574371 411.002991 286.69754 400.186279 294.796234 C 394.185455 300.698334 390.159332 312.919373 410.860504 326.336182 C 426.537201 336.483795 484.848022 360.312378 524.912231 328.657288 C 545.052246 312.349091 547.908691 287.899963 540.446533 271.904816 C 536.769104 262.251678 526.900696 246.817749 497.030334 244.200073 Z" />
      <path id="eN8HYslCIaj48" fill="none" stroke="#14192e" stroke-width="1.088403"
        stroke-linecap="round"
        d="M 509.176147 245.90979 C 509.176147 245.90979 504.397522 244.64563 497.072144 243.941772 C 483.210327 242.609863 464.268127 243.88623 447.293396 258.930145 C 441.282593 263.914429 424.292969 283.100128 439.744446 310.119598" />
    </g>
    <linearGradient id="linearGradient3" x1="368.71828" y1="237.241369" x2="437.395368"
      y2="242.184683" gradientUnits="userSpaceOnUse">
      <stop offset="1e-05" stop-color="#6a7281" stop-opacity="1" />
      <stop offset="1" stop-color="#0b3e3b" stop-opacity="1" />
    </linearGradient>
    <path id="eN8HYslCIaj49" fill="none" stroke="url(#linearGradient3)" stroke-width="2.194082"
      stroke-linecap="round"
      d="M 334.111603 301.729858 C 334.111603 301.729858 317.250458 314.35733 335.801422 304.264526 C 395.348816 268.062195 357.916168 210.274414 381.743896 188.267761 C 396.696594 174.455994 429.388397 182.310852 441.038971 185.481262" />
    <linearGradient id="linearGradient4" x1="574.146332" y1="146.810542" x2="615.622438"
      y2="114.944386" gradientUnits="userSpaceOnUse">
      <stop offset="1e-05" stop-color="#0b3e3b" stop-opacity="1" />
      <stop offset="0.42759" stop-color="#64a6a1" stop-opacity="1" />
      <stop offset="1" stop-color="#6a7281" stop-opacity="1" />
    </linearGradient>
    <path id="eN8HYslCIaj50" fill="none" stroke="url(#linearGradient4)" stroke-width="2.194082"
      stroke-linecap="round"
      d="M 562.069397 145.132019 C 562.069397 145.132019 593.938416 137.156555 605.950989 89.073242 C 614.727356 52.015198 590.372986 50.490295 586.566223 76.907043 C 586.127441 79.945862 582.759521 105.079102 599.116394 127.645203 C 616.592224 151.78009 629.266663 123.023743 626.929993 119.282837" />
    <g id="eN8HYslCIaj51">
      <g id="eN8HYslCIaj52">
        <g id="eN8HYslCIaj53">
          <linearGradient id="linearGradient5" x1="436.799852" y1="58.146923" x2="441.100253"
            y2="103.048811" gradientUnits="userSpaceOnUse">
            <stop offset="1e-05" stop-color="#1c2435" stop-opacity="1" />
            <stop offset="0.62" stop-color="#191f32" stop-opacity="1" />
            <stop offset="1" stop-color="#14192e" stop-opacity="1" />
          </linearGradient>
          <path id="path1" fill="url(#linearGradient5)" stroke="none"
            d="M 461.428406 87.98645 C 461.428406 87.98645 442.361847 71.015198 428.396515 61.997559 C 424.326508 59.222046 416.559448 56.611084 416.329041 66.122437 C 415.912201 74.075989 418.961975 94.963623 420.662384 112.099365 C 440.453003 101.315491 461.428406 87.98645 461.428406 87.98645 Z" />
          <linearGradient id="linearGradient6" x1="439.761863" y1="70.027877" x2="441.890122"
            y2="99.26402" gradientUnits="userSpaceOnUse">
            <stop offset="1e-05" stop-color="#5f6680" stop-opacity="1" />
            <stop offset="0.32" stop-color="#5c637c" stop-opacity="1" />
            <stop offset="0.62" stop-color="#535970" stop-opacity="1" />
            <stop offset="0.93" stop-color="#44495d" stop-opacity="1" />
            <stop offset="1" stop-color="#3f4457" stop-opacity="1" />
          </linearGradient>
          <path id="path2" fill="url(#linearGradient6)" stroke="none"
            d="M 455.361755 88.831177 C 455.361755 88.831177 442.976196 77.860718 433.903687 71.936707 C 431.24881 70.137573 426.224396 68.437195 426.081757 74.624512 C 425.807495 79.791565 427.782166 93.372925 428.901184 104.507874 C 441.736542 97.497742 455.361755 88.831177 455.361755 88.831177 Z" />
        </g>
        <g id="eN8HYslCIaj56">
          <linearGradient id="linearGradient7" x1="533.0652" y1="41.801012" x2="528.029782"
            y2="87.437918" gradientUnits="userSpaceOnUse">
            <stop offset="1e-05" stop-color="#1c2435" stop-opacity="1" />
            <stop offset="0.62" stop-color="#191f32" stop-opacity="1" />
            <stop offset="1" stop-color="#14192e" stop-opacity="1" />
          </linearGradient>
          <path id="path3" fill="url(#linearGradient7)" stroke="none"
            d="M 505.123596 81.184753 C 505.123596 81.184753 518.551331 59.485291 529.346191 46.847412 C 532.461853 43.018738 539.219604 38.301453 542.060913 47.363037 C 544.737732 54.86676 547.787476 75.754456 551.034729 92.659851 C 529.028076 87.975464 505.123596 81.184753 505.123596 81.184753 Z" />
          <linearGradient id="linearGradient8" x1="524.596043" y1="54.011079" x2="525.879581"
            y2="79.758631" gradientUnits="userSpaceOnUse">
            <stop offset="1e-05" stop-color="#5f6680" stop-opacity="1" />
            <stop offset="0.32" stop-color="#5c637c" stop-opacity="1" />
            <stop offset="0.62" stop-color="#535970" stop-opacity="1" />
            <stop offset="0.93" stop-color="#44495d" stop-opacity="1" />
            <stop offset="1" stop-color="#3f4457" stop-opacity="1" />
          </linearGradient>
          <path id="path4" fill="url(#linearGradient8)" stroke="none"
            d="M 511.168213 80.274231 C 511.168213 80.274231 519.94458 66.16626 526.910828 57.949463 C 528.940308 55.459167 533.295593 52.398438 535.182495 58.289551 C 536.915833 63.1604 538.901428 76.74176 541.018738 87.723145 C 526.702393 84.684326 511.168213 80.274231 511.168213 80.274231 Z" />
        </g>
      </g>
      <path id="path5" fill="#1c2435" stroke="none"
        d="M 573.458252 125.549133 C 579.217712 165.042603 545.812805 189.243286 500.954773 195.759766 C 456.096802 202.276184 416.394867 186.160645 410.997467 149.223267 C 404.162872 102.34668 439.191376 84.881775 484.049438 78.332458 C 528.90741 71.783142 566.075195 75.227844 573.458252 125.549133 Z" />
      <clipPath id="clipPath2">
        <path
          d="M 573.458252 125.549133 C 579.217712 165.042603 545.812805 189.243286 500.954773 195.759766 C 456.096802 202.276184 416.394867 186.160645 410.997467 149.223267 C 404.162872 102.34668 439.191376 84.881775 484.049438 78.332458 C 528.90741 71.783142 566.075195 75.227844 573.458252 125.549133 Z" />
      </clipPath>
      <g id="g8" clip-path="url(#clipPath2)">
        <g id="g9">
          <path id="eN8HYslCIaj62" fill="#18202d" stroke="none"
            d="M 409.06665 149.705994 C 409.06665 149.705994 431.786346 200.707397 502.764954 188.157227 C 540.546997 182.737854 567.852356 161.773438 574.555298 125.384583 C 576.266663 148.422424 577.407593 186.391052 502.721069 199.687195 C 458.477356 206.719177 417.053101 199.687195 409.06665 149.705994 Z" />
        </g>
      </g>
      <g id="eN8HYslCIaj65">
        <g id="g10">
          <path id="path6" fill="#ffffff" stroke="none"
            d="M 480.913818 127.756897 C 483.721924 140.258057 476.221069 152.762024 463.869751 156.169373 C 451.518433 159.576843 438.66748 152.687378 434.668701 140.514648 C 431.14444 127.687805 439.45932 116.888245 452.28476 113.353149 C 465.110229 109.817993 477.393677 114.962708 480.913818 127.756897 Z" />
          <g id="g11">
            <linearGradient id="linearGradient9" x1="464.922881" y1="122.229002" x2="447.310924"
              y2="154.909722" gradientUnits="userSpaceOnUse">
              <stop offset="1e-05" stop-color="#17286a" stop-opacity="1" />
              <stop offset="0.7" stop-color="#111c30" stop-opacity="1" />
              <stop offset="1" stop-color="#101a20" stop-opacity="1" />
            </linearGradient>
            <path id="eN8HYslCIaj69" fill="url(#linearGradient9)" stroke="none"
              d="M 475.105042 135.202637 C 476.374268 145.37384 469.157776 154.648071 458.986572 155.917297 C 448.815369 157.186523 439.541107 149.970032 438.271881 139.798828 C 437.002655 129.627686 444.219147 120.353394 454.39035 119.084167 C 464.561523 117.814941 473.835815 125.031433 475.105042 135.202637 Z" />
            <filter id="filter1" x="0" y="0" width="952" height="390" filterUnits="userSpaceOnUse"
              primitiveUnits="userSpaceOnUse" color-interpolation-filters="sRGB">
              <feGaussianBlur stdDeviation="0" />
            </filter>
            <path id="eN8HYslCIaj71" fill="#ffffff" stroke="none" filter="url(#filter1)"
              d="M 460.284912 125.532104 C 460.547791 127.638794 459.053101 129.559692 456.946411 129.822571 C 454.839783 130.085449 452.918884 128.590759 452.656006 126.484131 C 452.393127 124.377441 453.887817 122.456543 455.994446 122.193665 C 458.101135 121.930786 460.022034 123.425476 460.284912 125.532104 Z" />
          </g>
        </g>
        <g id="g12">
          <path id="path7" fill="#ffffff" stroke="none"
            d="M 547.51593 117.653625 C 550.879517 130.404846 543.331299 143.482849 530.607422 146.948792 C 517.883545 150.414673 504.745422 142.97168 501.177429 130.276062 C 497.692505 117.438477 506.225159 106.365723 519.019226 102.886169 C 531.813171 99.406555 544.079895 104.854248 547.51593 117.653625 Z" />
          <g id="g13">
            <linearGradient id="linearGradient10" x1="529.872163" y1="111.803129" x2="515.500168"
              y2="145.828016" gradientUnits="userSpaceOnUse">
              <stop offset="1e-05" stop-color="#17286a" stop-opacity="1" />
              <stop offset="0.7" stop-color="#111c30" stop-opacity="1" />
              <stop offset="1" stop-color="#101a20" stop-opacity="1" />
            </linearGradient>
            <path id="eN8HYslCIaj75" fill="url(#linearGradient10)" stroke="none"
              d="M 541.648499 125.090393 C 542.880493 135.215942 535.670837 144.423035 525.545288 145.655029 C 515.4198 146.887024 506.212708 139.677368 504.980713 129.551819 C 503.748718 119.42627 510.958374 110.219177 521.083923 108.987183 C 531.209473 107.755249 540.416565 114.964905 541.648499 125.090393 Z" />
            <path id="eN8HYslCIaj77" fill="#ffffff" stroke="none"
              d="M 529.475769 114.923401 C 529.736328 117.064514 528.211731 119.011475 526.070618 119.271973 C 523.929504 119.532471 521.982544 118.007935 521.722046 115.866821 C 521.461548 113.725647 522.986084 111.778748 525.127197 111.51825 C 527.268372 111.25769 529.215271 112.782288 529.475769 114.923401 Z" />
          </g>
        </g>
      </g>
      <g id="eN8HYslCIaj86">
        <path id="eN8HYslCIaj87" fill="none" stroke="#101526" stroke-width="2.27116"
          stroke-linecap="round"
          d="M 489.282288 165.997009 C 489.282288 165.997009 495.436707 158.416443 505.551392 163.451904" />
        <path id="path8" fill="#101526" stroke="none"
          d="M 485.958252 143.639282 C 485.454712 143.108643 485.201477 142.388245 485.262268 141.659241 C 485.322998 140.930176 485.691956 140.261658 486.276428 139.821655 C 490.335571 137.087036 495.418457 136.348267 500.088135 137.814026 C 500.741455 138.086609 501.253296 138.616821 501.502502 139.279419 C 501.751709 139.941956 501.716309 140.67804 501.404602 141.313599 C 499.967468 144.319519 497.411377 149.091614 494.570068 149.442688 C 492.277222 149.684021 490.258606 148.345642 485.958252 143.639282 Z" />
        <path id="eN8HYslCIaj89" fill="none" stroke="#101526" stroke-width="2.475276"
          stroke-linecap="round" stroke-linejoin="round"
          d="M 494.22998 146.305176 L 496.478882 161.740479" />
      </g>
      <g id="eN8HYslCIaj90">
        <g id="g14">
          <path id="path9" fill="none" stroke="#101526" stroke-width="2.475276"
            stroke-linecap="round" d="M 563.244812 141.708557 L 584.53833 147.468018" />
          <path id="path10" fill="none" stroke="#101526" stroke-width="2.475276"
            stroke-linecap="round" d="M 580.347717 118.703613 L 561.577271 130.310242" />
          <path id="path11" fill="none" stroke="#101526" stroke-width="2.475276"
            stroke-linecap="round" d="M 561.665039 136.091675 L 583.474243 132.734741" />
        </g>
        <g id="g15">
          <path id="path12" fill="none" stroke="#101526" stroke-width="2.475276"
            stroke-linecap="round" d="M 403.877655 144.451172 L 425.18219 150.210632" />
          <path id="path13" fill="none" stroke="#101526" stroke-width="2.475276"
            stroke-linecap="round" d="M 426.73999 155.772644 L 404.886932 158.78949" />
          <path id="path14" fill="none" stroke="#101526" stroke-width="2.475276"
            stroke-linecap="round" d="M 426.838715 161.5979 L 408.079315 173.20459" />
        </g>
      </g>
    </g>
    <g id="eN8HYslCIaj99">
      <clipPath id="clipPath3">
        <path
          d="M 478.75061 222.034668 C 478.75061 231.692383 471.267395 239.521484 462.036438 239.521484 C 452.80545 239.521484 445.322266 231.692383 445.322266 222.034668 C 445.322266 212.376953 452.80545 204.547791 462.036438 204.547791 C 471.267395 204.547791 478.75061 212.376953 478.75061 222.034668 Z" />
      </clipPath>
      <g id="g16" clip-path="url(#clipPath3)">
        <g id="g17">
          <path id="path15" fill="#d5b027" stroke="#d5a127" stroke-width="4.126626"
            d="M 478.960327 222.067566 C 478.960327 231.725281 471.477112 239.554382 462.246155 239.554382 C 453.015167 239.554382 445.531982 231.725281 445.531982 222.067566 C 445.531982 212.409851 453.015167 204.58075 462.246155 204.58075 C 471.477112 204.58075 478.960327 212.409851 478.960327 222.067566 Z" />
          <path id="path16" fill="none" stroke="#d5a127" stroke-width="2.063313"
            d="M 459.278687 202.101379 C 459.278687 202.101379 454.916626 224.459106 477.261658 238.150146" />
          <path id="path17" fill="none" stroke="#d5a127" stroke-width="2.063313"
            d="M 455.451416 203.582458 C 455.451416 203.582458 451.089386 225.940063 473.434326 239.620239" />
          <path id="path18" fill="none" stroke="#d5a127" stroke-width="2.063313"
            d="M 452.064545 205.798401 C 452.064545 205.798401 447.702545 228.156128 470.047485 241.847168" />
          <path id="path19" fill="none" stroke="#d5a127" stroke-width="2.063313"
            d="M 459.949768 214.772217 C 459.949768 214.772217 464.144043 207.301392 471.274292 205.589966" />
          <path id="path20" fill="none" stroke="#d5a127" stroke-width="2.063313"
            d="M 461.826721 220.158752 C 461.826721 220.158752 466.671082 211.097168 475.080627 208.310669" />
          <path id="path21" fill="none" stroke="#d5a127" stroke-width="2.063313"
            d="M 464.301331 224.908875 C 464.301331 224.908875 469.145691 215.847351 477.565735 213.060852" />
          <path id="path22" fill="none" stroke="#d5a127" stroke-width="2.063313"
            d="M 466.398438 228.276794 C 466.398438 228.276794 472.490601 220.081909 481.204224 218.644775" />
          <path id="path23" fill="none" stroke="#d5a127" stroke-width="2.063313"
            d="M 468.998962 231.480164 C 468.998962 231.480164 476.61145 224.832153 485.429993 225.36969" />
          <path id="path24" fill="none" stroke="#d5a127" stroke-width="2.063313"
            d="M 449.212463 209.243164 C 449.212463 209.243164 444.850403 231.60083 467.195374 245.280945" />
        </g>
      </g>
      <path id="path25" fill="none" stroke="#d5b027" stroke-width="2.063313" stroke-linecap="round"
        stroke-linejoin="round"
        d="M 459.142395 219.796692 C 452.326691 206.687012 453.322845 203.341064 456.898438 207.44397" />
      <path id="path26" fill="none" stroke="#d5b027" stroke-width="2.063313" stroke-linecap="round"
        stroke-linejoin="round"
        d="M 469.187683 228.353577 C 469.187683 228.353577 481.235718 216.286133 483.605469 221.508057 C 484.150696 224.612732 480.271057 224.678528 474.944275 224.294495" />
      <path id="path27" fill="none" stroke="#d5b027" stroke-width="2.063313" stroke-linecap="round"
        stroke-linejoin="round"
        d="M 453.626892 227.783142 C 453.626892 227.783142 453.626892 237.601624 457.988953 240.190674 C 459.320618 240.826965 459.561829 238.797424 457.569519 233.926575" />
    </g>
    <path id="eN8HYslCIaj117" fill="#1c2435" stroke="none"
      d="M 621.03717 179.502441 C 621.03717 188.291382 613.912354 195.416199 605.123413 195.416199 C 596.334473 195.416199 589.209595 188.291382 589.209595 179.502441 C 589.209595 170.713501 596.334473 163.588623 605.123413 163.588623 C 613.912354 163.588623 621.03717 170.713501 621.03717 179.502441 Z" />
    <path id="eN8HYslCIaj118" fill="#182231" stroke="none"
      d="M 459.247498 234.562927 C 459.247498 243.36499 452.111969 250.500519 443.309845 250.500519 C 434.507751 250.500519 427.372223 243.36499 427.372223 234.562927 C 427.372223 225.760803 434.507751 218.625244 443.309845 218.625244 C 452.111969 218.625244 459.247498 225.760803 459.247498 234.562927 Z" />
  </g>
  <g id="g18">
    <path id="eN8HYslCIaj120" fill="none" stroke="#45aaf2" stroke-width="2.5" stroke-linecap="round"
      d="M 608.882813 234.231995 C 608.882813 234.231995 619.10022 228.577332 631.039368 233.854004 C 646.713257 240.599731 647.19458 254.081482 639.564636 267.251465 C 631.934631 280.421509 618.582458 297.574646 578.742493 292.374634 C 539.942444 286.834656 548.742493 271.594666 567.312439 275.744629 C 580.312439 278.654663 599.992493 282.674683 619.622437 304.154663 C 660.162476 340.304626 623.682495 337.064636 597.692444 302.764648 C 579.692444 278.964661 593.052429 261.108154 596.062439 235.69812 C 612.452698 198.164734 607.012085 171.086182 634.382019 133.87085 C 662.903259 93.237915 671.132996 145.203918 660.742981 181.513916 C 646.802979 230.263916 618.590942 235.738892 625.743286 209.513672 C 630.008423 193.874817 644.140259 174.094116 669.914856 153.121216 C 724.614319 100.62439 701.578247 92.138 690.380127 123.258179 C 681.933289 145.344666 674.182739 156.486023 664.152283 169.575439 C 590.622253 252.675415 522.272461 192.534668 530.932495 293.354675 C 540.282471 396.954651 476.00177 407.937622 422.29248 368.574646 C 392.482178 343.208862 352.152466 351.914673 354.922455 361.574646 C 357.692474 371.23468 395.622467 359.264648 409.322479 334.024658 C 417.732452 318.524658 413.876923 300.44342 375.576935 287.623413 C 351.757996 278.475525 330.663757 267.446838 321.950958 244.141296 C 316.37439 229.22467 314.692108 198.862122 334.775055 193.178284" />
    <path id="eN8HYslCIaj121" fill="none" stroke="#6a7281" stroke-width="2" stroke-linecap="round"
      d="M 371.106842 127.464355 C 371.106842 127.464355 397.23996 89.039978 373.219971 98.039978 C 354.279968 105.899963 333.986755 119.907227 341.37674 151.537231 C 344.61673 164.927185 347.706696 185.118896 380.718811 174.595703 C 388.88147 172.597168 395.100647 160.332703 375.069977 151.289978 C 355.039276 142.247192 323.069977 113.869934 312.23996 118.489929 C 301.409973 123.109924 322.399963 139.969971 331.639954 146.429932 C 340.879974 152.889954 348.698761 168.976074 341.569977 189.859924 C 337.281982 202.266174 319.839966 234.559937 294.919952 226.859924 C 277.819977 221.549927 254.499969 202.149963 258.649963 189.859924 C 264.199951 178.999939 302.079956 221.499939 309.699951 249.859924 C 317.319977 278.21991 314.619965 316.71991 342.039978 327.239929 C 360.399963 334.239929 389.499969 323.239929 394.929962 293.749939 C 401.050751 261.608337 373.78009 263.594604 367.770111 268.44458" />
  </g>
  <path id="eN8HYslCIaj122" fill="none" stroke="#e50648" stroke-width="2" stroke-linecap="round"
    d="M 545.2854 27.669678 C 545.2854 27.669678 554.135376 8.669678 570.105408 5.1297 C 582.415405 2.409729 587.595398 4.1297 579.415405 34.59967 C 577.915405 41.239685 566.765381 51.889709 536.225403 45.829712 C 524.335388 42.769714 531.225403 38.59967 552.625427 34.739685 C 574.025391 30.8797 606.878113 43.328857 601.578064 51.938843 C 597.418091 58.688843 580.799622 34.696106 541.009583 50.736084 C 512.369568 62.286072 483.905396 74.309692 457.195374 53.3797 C 439.465393 36.999695 431.605408 25.139709 437.685394 20.429688 C 443.765411 15.719727 456.304626 23.028198 456.245422 46.1297 C 456.948425 80.003174 418.687744 104.369751 399.007751 108.329712 C 362.687744 115.649719 341.631409 118.140503 315.565399 98.979675 C 292.968536 81.467041 265.375397 91.339722 258.975403 116.86969 C 252.575409 142.399719 272.022736 171.593323 329.675415 181.86969 C 368.953766 187.765564 383.158234 207.417236 391.329346 226.459534 C 395.540771 236.273987 402.783264 248.239227 413.658447 248.044342" />
  <g id="eN8HYslCIaj123">
    <g id="eN8HYslCIaj124">
      <g id="g19">
        <clipPath id="clipPath4">
          <path
            d="M 585.694519 11.64978 C 598.878845 21.810425 601.330078 40.735291 591.169434 53.919617 C 581.008789 67.103943 562.083923 69.555176 548.899597 59.394531 C 535.71521 49.233887 533.264038 30.309021 543.424683 17.124695 C 553.585327 3.940308 572.510193 1.489136 585.694519 11.64978 Z" />
        </clipPath>
        <g id="g20" clip-path="url(#clipPath4)">
          <g id="g21">
            <path id="path28" fill="#e50648" stroke="#c2053d" stroke-width="4.712157"
              d="M 585.694519 11.64978 C 598.878845 21.810425 601.330078 40.735291 591.169434 53.919617 C 581.008789 67.103943 562.083923 69.555176 548.899597 59.394531 C 535.71521 49.233887 533.264038 30.309021 543.424683 17.124695 C 553.585327 3.940308 572.510193 1.489136 585.694519 11.64978 Z" />
            <path id="path29" fill="none" stroke="#b7213e" stroke-width="3.625136"
              d="M 588.204346 11.04425 C 588.204346 11.04425 563.031982 25.303162 557.565918 67.637207" />
            <path id="path30" fill="none" stroke="#b7213e" stroke-width="3.625137"
              d="M 579.017151 6.445251 C 579.017151 6.445251 555.135254 22.744751 553.177795 65.398254" />
            <path id="path31" fill="none" stroke="#b7213e" stroke-width="3.625135"
              d="M 573.187988 1.520996 C 573.187988 1.520996 547.640869 16.922729 547.97998 60.746643" />
            <path id="path32" fill="none" stroke="#b7213e" stroke-width="3.625137"
              d="M 573.975952 3.07843 C 573.975952 3.07843 540.267029 8.503906 539.181641 57.257324" />
            <path id="path33" fill="none" stroke="#b7213e" stroke-width="3.625135"
              d="M 559.079041 56.555664 C 559.079041 56.555664 578.121094 62.68219 595.274841 52.174866" />
            <path id="path34" fill="none" stroke="#b7213e" stroke-width="3.625136"
              d="M 561.269043 45.788635 C 561.269043 45.788635 578.332214 54.032715 597.079407 48.98114" />
            <path id="path35" fill="none" stroke="#b7213e" stroke-width="3.625135"
              d="M 563.859558 41.241516 C 563.859558 41.241516 581.351685 46.626892 600.116638 40.255005" />
            <path id="path36" fill="none" stroke="#b7213e" stroke-width="3.625138"
              d="M 566.358032 36.822449 C 578.251038 37.834473 590.199707 35.675537 600.986572 30.565613" />
            <path id="path37" fill="none" stroke="#b7213e" stroke-width="3.625136"
              d="M 570.460815 28.891113 C 582.361206 29.806091 594.291748 27.552673 605.038574 22.360046" />
            <path id="path38" fill="none" stroke="#b7213e" stroke-width="3.625136"
              d="M 575.909058 21.381775 C 587.80011 22.291687 599.247986 20.046021 609.986328 14.858337" />
          </g>
        </g>
        <path id="eN8HYslCIaj141" fill="none" stroke="#cf2a4a" stroke-width="1.812568"
          stroke-linecap="round"
          d="M 575.257813 39.776184 C 584.107178 39.361511 600.156799 47.409851 601.872009 41.811829 C 602.314941 36.666199 595.614258 39.776184 585.709351 39.125916" />
        <path id="eN8HYslCIaj142" fill="none" stroke="#cf2a4a" stroke-width="1.812568"
          stroke-linecap="round"
          d="M 555.108032 36.650269 C 555.108032 36.650269 552.167664 40.900635 548.576965 45.2547 C 544.439697 50.145874 537.691895 52.002441 538.01239 57.119873 C 538.332764 62.237244 546.720398 62.44458 549.557129 55.59314 C 551.132568 51.964233 552.298889 48.171082 553.034729 44.283936" />
        <path id="eN8HYslCIaj143" fill="none" stroke="#cf2a4a" stroke-width="1.812568"
          stroke-linecap="round"
          d="M 542.131348 28.137146 C 542.131348 28.137146 544.85498 22.256348 550.189087 10.07074 C 555.315918 -1.653076 559.88678 -1.040466 560.744324 2.013 C 562.487793 8.214172 549.105347 9.854004 544.421448 22.15271" />
      </g>
    </g>
    <g id="eN8HYslCIaj144">
      <clipPath id="clipPath5">
        <path
          d="M 379.546997 105.517029 C 396.895233 118.886597 400.120544 143.78833 386.750977 161.136536 C 373.381378 178.484802 348.479675 181.710083 331.13147 168.340515 C 313.783234 154.970947 310.557892 130.069214 323.92749 112.721008 C 337.297058 95.372803 362.198761 92.147461 379.546997 105.517029 Z" />
      </clipPath>
      <g id="g22" clip-path="url(#clipPath5)">
        <g id="g23">
          <path id="path39" fill="#6a7281" stroke="#35a7ac" stroke-width="6.200353"
            d="M 379.546997 105.517029 C 396.895233 118.886597 400.120544 143.78833 386.750977 161.136536 C 373.381378 178.484802 348.479675 181.710083 331.13147 168.340515 C 313.783234 154.970947 310.557892 130.069214 323.92749 112.721008 C 337.297058 95.372803 362.198761 92.147461 379.546997 105.517029 Z" />
          <path id="path40" fill="none" stroke="#35a7ac" stroke-width="3.72021"
            d="M 382.849487 104.720276 C 382.849487 104.720276 348.431641 122.714661 342.53479 179.186462" />
          <path id="path41" fill="none" stroke="#35a7ac" stroke-width="3.72021"
            d="M 368.924164 100.215149 C 368.924164 100.215149 333.900055 118.084961 328.597076 174.693787" />
          <path id="path42" fill="none" stroke="#35a7ac" stroke-width="3.720211"
            d="M 374.551636 100.025574 C 374.551636 100.025574 340.71579 120.054443 338.969513 176.884216" />
          <path id="path43" fill="none" stroke="#35a7ac" stroke-width="3.720209"
            d="M 362.484589 93.297974 C 362.484589 93.297974 327.672546 111.431458 324.527313 169.01178" />
          <path id="path44" fill="none" stroke="#35a7ac" stroke-width="3.72021"
            d="M 361.498657 92.675537 C 361.498657 92.675537 317.773773 102.99292 320.973175 167.079712" />
          <path id="path45" fill="none" stroke="#35a7ac" stroke-width="3.72021"
            d="M 344.621307 166.517212 C 344.621307 166.517212 369.968353 173.610474 391.992004 158.927979" />
          <path id="path46" fill="none" stroke="#35a7ac" stroke-width="3.72021"
            d="M 344.907867 162.284424 C 344.907867 162.284424 370.715179 167.45813 391.576599 151.166504" />
          <path id="path47" fill="none" stroke="#35a7ac" stroke-width="3.72021"
            d="M 347.361908 152.571838 C 347.361908 152.571838 371.630066 158.301025 394.273682 146.470703" />
          <path id="path48" fill="none" stroke="#35a7ac" stroke-width="3.72021"
            d="M 351.051086 143.967468 C 351.051086 143.967468 374.513245 149.398987 398.545807 139.280029" />
          <path id="path49" fill="none" stroke="#35a7ac" stroke-width="3.720211"
            d="M 354.469513 139.505737 C 370.163269 140.116333 385.738312 136.555603 399.607697 129.186401" />
          <path id="path50" fill="none" stroke="#35a7ac" stroke-width="3.72021"
            d="M 359.502167 130.203552 C 375.16098 131.407532 390.859406 128.442383 405.000336 121.609802" />
          <path id="path51" fill="none" stroke="#35a7ac" stroke-width="3.72021"
            d="M 366.049744 120.332581 C 381.696259 121.529846 397.38089 118.564941 411.510681 111.738892" />
        </g>
      </g>
      <path id="eN8HYslCIaj162" fill="none" stroke="#6a7281" stroke-width="2.385014"
        stroke-linecap="round"
        d="M 365.814148 142.526367 C 377.458344 141.980713 398.576782 152.570862 400.83371 145.204834 C 401.416504 138.434143 392.599609 142.526367 379.566467 141.670715" />
      <path id="eN8HYslCIaj163" fill="none" stroke="#6a7281" stroke-width="2.385014"
        stroke-linecap="round"
        d="M 341.466095 137.801697 C 341.466095 137.801697 337.597076 143.394409 332.872406 149.123535 C 327.428497 155.559509 318.549622 158.00238 318.971283 164.735962 C 319.392853 171.469543 330.429504 171.742371 334.16214 162.727051 C 336.235077 157.952087 337.769806 152.960999 338.737976 147.846191" />
      <path id="eN8HYslCIaj164" fill="none" stroke="#6a7281" stroke-width="2.385014"
        stroke-linecap="round"
        d="M 322.225647 127.211426 C 322.225647 127.211426 325.809479 119.473389 332.828247 103.439331 C 339.574219 88.012817 345.588593 88.818909 346.717041 92.836731 C 349.011139 100.996399 331.402191 103.154114 325.239014 119.337036" />
    </g>
    <g id="eN8HYslCIaj165">
      <clipPath id="clipPath6">
        <path
          d="M 633.514465 242.723816 C 653.201111 257.895538 656.861206 286.15387 641.689514 305.840546 C 626.517761 325.527222 598.259399 329.187317 578.572754 314.015564 C 558.886047 298.843842 555.226013 270.58551 570.397705 250.898834 C 585.569458 231.212158 613.827759 227.552063 633.514465 242.723816 Z" />
      </clipPath>
      <g id="g24" clip-path="url(#clipPath6)">
        <g id="g25">
          <path id="path52" fill="#45aaf2" stroke="#1984d0" stroke-width="7.036129"
            d="M 633.514465 242.723816 C 653.201111 257.895538 656.861206 286.15387 641.689514 305.840546 C 626.517761 325.527222 598.259399 329.187317 578.572754 314.015564 C 558.886047 298.843842 555.226013 270.58551 570.397705 250.898834 C 585.569458 231.212158 613.827759 227.552063 633.514465 242.723816 Z" />
          <path id="path53" fill="none" stroke="#1984d0" stroke-width="4.221675"
            d="M 637.262085 241.819641 C 637.262085 241.819641 598.204895 262.239594 591.513184 326.323486" />
          <path id="path54" fill="none" stroke="#1984d0" stroke-width="4.221676"
            d="M 620.107971 233.744324 C 620.107971 233.744324 582.534668 257.809814 582.823303 322.329773" />
          <path id="path55" fill="none" stroke="#1984d0" stroke-width="4.221675"
            d="M 632.711609 235.816223 C 632.711609 235.816223 620.390869 241.482239 607.888245 257.28064 C 606.197815 259.416626 604.504089 261.737915 602.836975 264.255402 C 600.8125 267.312714 598.827271 270.659485 596.935181 274.315491 C 591.006409 285.771332 585.991455 300.263397 583.543762 318.399811" />
          <path id="path56" fill="none" stroke="#1984d0" stroke-width="4.221675"
            d="M 617.043457 228.629517 C 617.043457 228.629517 576.909363 247.950684 571.280457 313.147461" />
          <path id="path57" fill="none" stroke="#1984d0" stroke-width="4.221675"
            d="M 613.033264 228.151306 C 613.033264 228.151306 563.41449 239.859436 567.045166 312.584808" />
          <path id="path58" fill="none" stroke="#1984d0" stroke-width="4.221675"
            d="M 593.880981 310.811707 C 593.880981 310.811707 622.644653 318.861084 647.636963 302.199493" />
          <path id="path59" fill="none" stroke="#1984d0" stroke-width="4.221675"
            d="M 596.061951 302.312805 C 596.061951 302.312805 623.601379 308.81427 649.29718 295.389282" />
          <path id="path60" fill="none" stroke="#1984d0" stroke-width="4.221674"
            d="M 599.420105 295.151031 C 599.420105 295.151031 626.517029 298.704041 652.54718 284.63089" />
          <path id="path61" fill="none" stroke="#1984d0" stroke-width="4.221676"
            d="M 600.940552 284.81958 C 600.940552 284.81958 626.689819 293.976227 655.092407 285.674927" />
          <path id="path62" fill="none" stroke="#1984d0" stroke-width="4.221676"
            d="M 604.603821 280.067413 C 622.347229 281.746002 640.218445 278.690796 656.396545 271.213135" />
          <path id="path63" fill="none" stroke="#1984d0" stroke-width="4.221676"
            d="M 607.815186 273.421356 C 625.619324 272.623383 642.894531 267.123749 657.883301 257.482025" />
          <path id="path64" fill="none" stroke="#1984d0" stroke-width="4.221673"
            d="M 612.553833 266.233856 C 630.332153 265.215698 647.524353 259.51059 662.384277 249.697906" />
          <path id="path65" fill="none" stroke="#1984d0" stroke-width="4.221673"
            d="M 619.986023 256.014618 C 637.764343 254.99646 654.956543 249.291351 669.816406 239.478699" />
        </g>
      </g>
      <path id="eN8HYslCIaj184" fill="none" stroke="#45aaf2" stroke-width="2.81445"
        stroke-linecap="round"
        d="M 617.930481 284.721771 C 631.144287 284.1026 655.109314 296.12027 657.670532 287.761353 C 658.331848 280.077972 648.326538 284.721771 633.53656 283.750793" />
      <path id="eN8HYslCIaj185" fill="none" stroke="#45aaf2" stroke-width="2.81445"
        stroke-linecap="round"
        d="M 583.903198 276.573181 C 583.903198 276.573181 579.512695 282.9198 574.151123 289.421173 C 567.973389 296.72467 557.897705 299.496857 558.376221 307.138092 C 558.854614 314.779297 571.378967 315.088928 575.614746 304.858368 C 577.967102 299.439728 579.708679 293.775879 580.807373 287.97168" />
      <path id="eN8HYslCIaj186" fill="none" stroke="#45aaf2" stroke-width="2.81445"
        stroke-linecap="round"
        d="M 568.466492 267.342499 C 568.466492 267.342499 572.533386 258.561432 580.49823 240.366028 C 588.153564 222.860168 594.978638 223.774902 596.259155 228.33429 C 598.862488 237.593811 578.880005 240.042419 571.886047 258.406647" />
    </g>
  </g>
  <g id="g26">
    <path id="path66" fill="#6a7281" stroke="none"
      d="M -0.322395 248.410614 C -0.322395 239.531982 2.637165 233.119568 5.60603 226.213928 L 79.129654 44.657104 C 83.610703 32.461243 95.248428 24.376587 108.241287 24.433472 C 126.491913 24.433472 139.809937 38.737976 139.809937 55.015564 C 139.666763 60.4599 138.495224 65.828125 136.357117 70.837097 L 73.694504 227.656494 L 136.841064 227.656494 L 136.841064 156.152405 C 136.841064 138.395081 151.154892 123.578674 168.418991 123.578674 C 186.176346 123.578674 200.490173 138.869751 200.490173 156.152405 L 200.490173 227.656494 L 220.713837 227.656494 C 236.5354 227.656494 247.852448 239.001465 247.852448 255.279022 C 247.852448 271.556641 236.507477 282.910889 220.713837 282.910889 L 200.490173 282.910889 L 200.490173 321.887726 C 200.490173 339.151825 186.669601 354.461487 168.418991 354.461487 C 150.661636 354.461487 136.841064 339.654388 136.841064 321.887726 L 136.841064 282.94812 L 37.677223 282.94812 C 16.960312 282.94812 -0.322395 268.606354 -0.322395 248.410614 Z" />
    <path id="path67" fill="#6a7281" stroke="none"
      d="M 703.783203 248.410614 C 703.783203 239.531982 706.742737 233.119568 709.711609 226.213928 L 783.235229 44.657104 C 787.716309 32.461243 799.354004 24.376587 812.346863 24.433472 C 830.597473 24.433472 843.915527 38.737976 843.915527 55.015564 C 843.772339 60.4599 842.60083 65.828125 840.462708 70.837097 L 777.80011 227.656494 L 840.946655 227.656494 L 840.946655 156.152405 C 840.946655 138.395081 855.260498 123.578674 872.524597 123.578674 C 890.281921 123.578674 904.595764 138.869751 904.595764 156.152405 L 904.595764 227.656494 L 924.819458 227.656494 C 940.640991 227.656494 951.958008 239.001465 951.958008 255.279022 C 951.958008 271.556641 940.613037 282.910889 924.819458 282.910889 L 904.595764 282.910889 L 904.595764 321.887726 C 904.595764 339.151825 890.775208 354.461487 872.524597 354.461487 C 854.767212 354.461487 840.946655 339.654388 840.946655 321.887726 L 840.946655 282.94812 L 741.782837 282.94812 C 721.065918 282.94812 703.783203 268.606354 703.783203 248.410614 Z" />
  </g>
</svg>