<svg width="38" height="38" viewBox="0 0 38 38" fill="none" xmlns="http://www.w3.org/2000/svg">
  <path
    d="M6.43945 37.7959H31.3154C35.6221 37.7959 37.7549 35.6631 37.7549 31.4385V6.39844C37.7549 2.17383 35.6221 0.0410156 31.3154 0.0410156H6.43945C2.15332 0.0410156 0 2.15332 0 6.39844V31.4385C0 35.6836 2.15332 37.7959 6.43945 37.7959Z"
    fill="#305C9D" />
  <path
    d="M12.2021 28.4648C11.4639 28.4648 10.9512 27.9727 10.9512 27.2139C10.9512 26.4961 11.2998 26.0859 12.0586 25.8398C13.6377 25.3887 15.0117 23.9121 15.0117 21.6768C15.0117 21 14.8887 20.2822 14.7041 19.5645H12.2021C11.5254 19.5645 11.0332 19.1133 11.0332 18.416C11.0332 17.7393 11.5254 17.2881 12.2021 17.2881H14.1504C13.9453 16.4678 13.8018 15.627 13.8018 14.7861C13.8018 10.7871 16.4678 8.26465 20.8154 8.26465C22.1484 8.26465 23.3174 8.42871 24.3018 8.79785C25.1016 9.10547 25.3682 9.55664 25.3682 10.1309C25.3682 10.8076 25.0195 11.2383 24.2197 11.2383C23.6455 11.2383 22.7842 10.7666 20.9795 10.7666C18.2109 10.7666 16.5703 12.3252 16.5703 14.6016C16.5703 15.627 16.7549 16.4883 16.9395 17.2881H22.7637C23.4404 17.2881 23.9531 17.7393 23.9531 18.416C23.9531 19.1133 23.4404 19.5645 22.7637 19.5645H17.4932C17.6367 20.1797 17.7188 20.8359 17.7188 21.5742C17.7188 23.3584 16.9805 25.0605 15.8936 25.9834H25.0811C25.8193 25.9834 26.3525 26.4756 26.3525 27.2139C26.3525 27.9932 25.8193 28.4648 25.0811 28.4648H12.2021Z"
    fill="white" />
</svg>