<?xml version="1.0" encoding="UTF-8"?>
<!-- Generated by Pixelmator Pro 3.6 -->
<svg width="400" height="400" viewBox="0 0 400 400" xmlns="http://www.w3.org/2000/svg">
    <g id="banknotefill">
        <path id="Path" fill="#305c9d" stroke="none"
            d="M 43.500137 278.184021 C 43.500137 280.608948 44.864254 281.821777 47.137802 281.821777 L 165.664078 281.821777 C 149.598007 265.451965 140.200653 236.502304 140.200653 199.822662 C 140.200653 163.295273 149.598007 134.497009 165.361053 118.279144 L 47.137802 118.279144 C 44.864254 118.279144 43.500137 119.491669 43.500137 121.916809 Z M 158.389328 199.822662 C 158.389328 247.112503 174.758408 278.79007 199.464264 278.79007 C 224.927673 278.79007 242.055038 247.112503 242.055038 199.822662 C 242.055038 152.533569 224.927673 121.007385 199.464264 121.007385 C 174.758408 121.007385 158.389328 152.533569 158.389328 199.822662 Z M 234.173538 281.821777 L 353.002991 281.821777 C 355.276398 281.821777 356.640747 280.608948 356.640747 278.184021 L 356.640747 121.916809 C 356.640747 119.491669 355.276398 118.279144 353.002991 118.279144 L 234.325027 118.279144 C 250.542587 134.497009 260.091461 163.295273 260.091461 199.822662 C 260.091461 236.502304 250.391083 265.451965 234.173538 281.821777 Z" />
        <path id="path1" fill="#305c9d" stroke="none"
            d="M 0 313.19632 C 0 320.471771 4.850192 325.321594 12.125442 325.321594 L 388.16684 325.321594 C 395.442322 325.321594 400.140594 320.471771 400.140594 313.19632 L 400.140594 86.75293 C 400.140594 79.477631 395.442322 74.779022 388.16684 74.779022 L 12.125442 74.779022 C 4.850192 74.779022 0 79.477631 0 86.75293 Z M 27.737034 288.338928 L 27.737034 111.761749 C 27.737034 105.698944 31.22311 102.516022 36.831154 102.516022 L 363.309448 102.516022 C 369.069092 102.516022 372.403778 105.698944 372.403778 111.761749 L 372.403778 288.338928 C 372.403778 294.250061 369.069092 297.584778 363.309448 297.584778 L 36.831154 297.584778 C 31.22311 297.584778 27.737034 294.250061 27.737034 288.338928 Z" />
    </g>
</svg>