<?xml version="1.0" encoding="UTF-8"?>
<!-- Generated by Pixelmator Pro 3.6 -->
<svg width="400" height="400" viewBox="0 0 400 400" xmlns="http://www.w3.org/2000/svg">
    <path id="Path" fill="#305c9d" stroke="none" d="M 68.223724 400 L 331.775726 400 C 377.403717 400 400 377.403748 400 332.645538 L 400 67.354706 C 400 22.596405 377.403717 0 331.775726 0 L 68.223724 0 C 22.813675 0 0 22.37915 0 67.354706 L 0 332.645538 C 0 377.620941 22.813675 400 68.223724 400 Z"/>
    <path id="path1" fill="#ffffff" stroke="none" d="M 132.443161 306.629456 C 124.67263 306.629456 119.275787 301.449463 119.275787 293.462097 C 119.275787 285.906311 122.945259 281.588409 130.932632 278.997894 C 147.554733 274.249481 162.017899 258.706299 162.017899 235.176834 C 162.017899 228.052628 160.72316 220.496841 158.779999 212.942108 L 132.443161 212.942108 C 125.32 212.942108 120.138947 208.192642 120.138947 200.852631 C 120.138947 193.729477 125.32 188.979996 132.443161 188.979996 L 152.951584 188.979996 C 150.792633 180.345261 149.282104 171.49472 149.282104 162.643158 C 149.282104 120.548431 177.345261 93.996307 223.109467 93.996307 C 237.141052 93.996307 249.44632 95.723267 259.808411 99.608948 C 268.227386 102.847046 271.033691 107.596222 271.033691 113.641052 C 271.033691 120.764221 267.363159 125.297913 258.944214 125.297913 C 252.900009 125.297913 243.833694 120.332642 224.836838 120.332642 C 195.69368 120.332642 178.424194 136.738953 178.424194 160.701065 C 178.424194 171.49472 180.367371 180.56105 182.310532 188.979996 L 243.617905 188.979996 C 250.741043 188.979996 256.137909 193.729477 256.137909 200.852631 C 256.137909 208.192642 250.741043 212.942108 243.617905 212.942108 L 188.138947 212.942108 C 189.649475 219.417908 190.513687 226.325256 190.513687 234.096832 C 190.513687 252.877899 182.742096 270.794739 171.301056 280.50946 L 268.011597 280.50946 C 275.782104 280.50946 281.394745 285.690521 281.394745 293.462097 C 281.394745 301.665283 275.782104 306.629456 268.011597 306.629456 L 132.443161 306.629456 Z"/>
</svg>
